<svg width="17" height="20" viewBox="0 0 17 20" xmlns="http://www.w3.org/2000/svg" xmlns:xlink="http://www.w3.org/1999/xlink"><title>Group 3</title><defs><path id="a" d="M0 0h17v19.996H0z"/></defs><g fill="none" fill-rule="evenodd"><mask id="b" fill="#fff"><use xlink:href="#a"/></mask><path d="M3.901 6.981a6.393 6.393 0 0 0-1.9 4.563 6.39 6.39 0 0 0 1.9 4.563c2.536 2.52 6.661 2.521 9.197 0A6.392 6.392 0 0 0 15 11.544a6.394 6.394 0 0 0-1.902-4.563L8.5 2.411 3.901 6.98zM8.5 19.996a8.5 8.5 0 0 1-6.008-2.47 8.38 8.38 0 0 1-2.49-5.982 8.37 8.37 0 0 1 2.49-5.98L7.794.29a.999.999 0 0 1 1.41 0l5.304 5.272A8.38 8.38 0 0 1 17 11.544a8.38 8.38 0 0 1-2.492 5.981A8.498 8.498 0 0 1 8.5 19.996z" fill="#3E3F42" mask="url(#b)"/></g></svg>