<svg width="20" height="20" viewBox="0 0 20 20" xmlns="http://www.w3.org/2000/svg"><title>Fill 1</title><path d="M10 2.005a1.91 1.91 0 0 0-1.208.434L2.788 7.326A2.198 2.198 0 0 0 2 9.025v6.843c0 1.177.896 2.135 1.996 2.135h12.008c1.1 0 1.996-.958 1.996-2.135V9.025c0-.663-.294-1.298-.788-1.699l-6.004-4.887A1.91 1.91 0 0 0 10 2.005m6.004 17.998H3.996C1.792 20.003 0 18.148 0 15.868V9.025a4.16 4.16 0 0 1 1.526-3.25L7.529.888a3.882 3.882 0 0 1 4.942 0l6.004 4.887A4.163 4.163 0 0 1 20 9.025v6.843c0 2.28-1.792 4.135-3.996 4.135" fill="#3E3F42" fill-rule="evenodd"/></svg>