<svg width="20" height="20" viewBox="0 0 20 20" xmlns="http://www.w3.org/2000/svg"><title>Fill 1</title><path d="M13.422 2.004a4.56 4.56 0 0 0-3.23 1.339 4.563 4.563 0 0 0-.995 4.974c.255.615.255.615-3.54 4.41L2.334 16.05a1.147 1.147 0 0 0 0 1.619 1.148 1.148 0 0 0 1.619 0l6.645-6.646a.999.999 0 0 1 1.094-.215 4.571 4.571 0 0 0 4.968-1A4.566 4.566 0 0 0 18 6.449l-2.125 2.125c-1.188 1.189-3.259 1.189-4.447 0a3.12 3.12 0 0 1-.92-2.223c0-.84.326-1.63.92-2.223l2.121-2.121c-.043-.002-.084-.002-.127-.002M3.142 20.002a3.13 3.13 0 0 1-2.223-.92 3.148 3.148 0 0 1 0-4.446l.708.707-.708-.707L7.12 8.435a6.555 6.555 0 0 1 1.66-6.506A6.56 6.56 0 0 1 15.9.485c.31.126.55.405.617.733a1 1 0 0 1-.261.91l-3.412 3.413a1.138 1.138 0 0 0-.335.809c0 .306.119.593.335.809a1.17 1.17 0 0 0 1.617 0l3.413-3.412a.996.996 0 0 1 .903-.273.996.996 0 0 1 .729.6 6.555 6.555 0 0 1-1.431 7.149 6.557 6.557 0 0 1-6.507 1.658l-6.2 6.202a3.134 3.134 0 0 1-2.225.919" fill="#3E3F42" fill-rule="evenodd"/></svg>