<svg width="20" height="20" viewBox="0 0 20 20" xmlns="http://www.w3.org/2000/svg"><title>Group 5</title><g fill="#3E3F42" fill-rule="evenodd"><path d="M10 18c-4.411 0-8-3.589-8-8s3.589-8 8-8 8 3.589 8 8-3.589 8-8 8m0-18C4.486 0 0 4.486 0 10s4.486 10 10 10 10-4.486 10-10S15.514 0 10 0"/><path d="M8.866 10L10 8.016 11.135 10h-2.27zm2.002-4.496c-.011-.02-.03-.03-.042-.048-.037-.057-.083-.102-.131-.151a.978.978 0 0 0-.15-.131c-.018-.012-.03-.031-.05-.042-.035-.021-.075-.022-.113-.038a.95.95 0 0 0-.193-.064 1.003 1.003 0 0 0-.19-.014.998.998 0 0 0-.187.014.95.95 0 0 0-.193.064c-.038.015-.078.017-.115.038-.02.011-.03.031-.05.043a.907.907 0 0 0-.147.13.817.817 0 0 0-.132.151c-.013.018-.032.028-.043.048l-4 7a1 1 0 0 0 1.736.992L7.723 12h4.554l.855 1.496a1 1 0 1 0 1.736-.992l-4-7z"/></g></svg>