<svg width="20" height="20" viewBox="0 0 20 20" xmlns="http://www.w3.org/2000/svg"><title>Fill 1</title><path d="M10.001 2L8.108 7.162a1.002 1.002 0 0 1-.882.654l-5.225.297L6.1 11.61a.999.999 0 0 1 .319 1.006L5.056 18l4.383-2.98a.998.998 0 0 1 1.124 0L14.944 18l-1.362-5.383a1 1 0 0 1 .319-1.006l4.1-3.5-5.225-.296a1.002 1.002 0 0 1-.882-.654l-1.893-5.16zm4.944 16l-.562.828.563-.828h-.001zm0 2a1.99 1.99 0 0 1-1.125-.346l-3.819-2.599-3.819 2.599a2.01 2.01 0 0 1-2.273-.015 2.01 2.01 0 0 1-.791-2.13l1.21-4.78L.703 9.633A1.988 1.988 0 0 1 .107 7.47 1.986 1.986 0 0 1 1.89 6.115l4.567-.26 1.667-4.544a2.005 2.005 0 0 1 1.877-1.31c.834 0 1.589.525 1.877 1.31l1.667 4.545 4.57.26a1.987 1.987 0 0 1 1.781 1.357 1.99 1.99 0 0 1-.597 2.16l-3.626 3.097 1.211 4.779A1.997 1.997 0 0 1 14.945 20z" fill="#3E3F42" fill-rule="evenodd"/></svg>