<svg width="24" height="24" viewBox="0 0 24 24" xmlns="http://www.w3.org/2000/svg"><title>Group 17</title><g fill="none" fill-rule="evenodd"><path d="M4 2c-1.103 0-2 .897-2 2v16c0 1.103.897 2 2 2h16c1.103 0 2-.897 2-2V4c0-1.103-.897-2-2-2H4zm16 22H4c-2.206 0-4-1.794-4-4V4c0-2.206 1.794-4 4-4h16c2.206 0 4 1.794 4 4v16c0 2.206-1.794 4-4 4z" fill="#D3D8E2"/><path d="M4 9.703c-1.103 0-2 .897-2 2v8c0 1.103.897 2 2 2h8c1.103 0 2-.897 2-2v-8c0-1.103-.897-2-2-2H4zm8 14H4c-2.206 0-4-1.794-4-4v-8c0-2.206 1.794-4 4-4h8c2.206 0 4 1.794 4 4v8c0 2.206-1.794 4-4 4z" fill="#1D1D1B"/></g></svg>