<svg width="20" height="20" viewBox="0 0 20 20" xmlns="http://www.w3.org/2000/svg" xmlns:xlink="http://www.w3.org/1999/xlink"><title>Group 3</title><defs><path id="a" d="M0 0h20v19.99H0z"/></defs><g fill="none" fill-rule="evenodd"><mask id="b" fill="#fff"><use xlink:href="#a"/></mask><path d="M5.1 16.31l1.79-1.79a5.482 5.482 0 0 0 3.11.973c1.091 0 2.176-.33 3.11-.973l1.791 1.79a8.009 8.009 0 0 1-9.802 0M3.685 5.094l1.79 1.79a5.501 5.501 0 0 0 0 6.222l-1.79 1.79A7.936 7.936 0 0 1 2 9.995c0-1.8.597-3.504 1.685-4.901M14.901 3.68l-1.79 1.79a5.496 5.496 0 0 0-6.22 0L5.098 3.68a7.978 7.978 0 0 1 9.802 0m-7.375 8.79a3.504 3.504 0 0 1 0-4.95A3.488 3.488 0 0 1 10 6.497c.896 0 1.792.34 2.475 1.023a3.504 3.504 0 0 1 0 4.95 3.505 3.505 0 0 1-4.95 0m8.79 2.426l-1.79-1.79a5.498 5.498 0 0 0 0-6.221l1.79-1.791A7.938 7.938 0 0 1 18 9.994c0 1.8-.597 3.505-1.685 4.902m.756-11.972c-3.899-3.9-10.243-3.9-14.142 0A9.934 9.934 0 0 0 0 9.994a9.932 9.932 0 0 0 2.93 7.072A9.966 9.966 0 0 0 10 19.99a9.97 9.97 0 0 0 7.071-2.925 9.932 9.932 0 0 0 2.93-7.071 9.934 9.934 0 0 0-2.93-7.071" fill="#3E3F42" mask="url(#b)"/></g></svg>