<svg width="20" height="20" viewBox="0 0 20 20" xmlns="http://www.w3.org/2000/svg" xmlns:xlink="http://www.w3.org/1999/xlink"><title>Group 10</title><defs><path id="a" d="M0 .998h20v16H0z"/></defs><g fill="none" fill-rule="evenodd"><g transform="translate(0 -.998)"><mask id="b" fill="#fff"><use xlink:href="#a"/></mask><path d="M16 14.998H4c-1.103 0-2-.897-2-2V8.72l5.504 3.145a.997.997 0 0 0 1.011-.011l4.529-2.717L18 11.616v1.382c0 1.103-.897 2-2 2m-12-12h12c1.103 0 2 .897 2 2V9.38l-4.553-2.277a1 1 0 0 0-.962.038L7.988 9.839 2 6.418v-1.42c0-1.103.897-2 2-2m12-2H4c-2.206 0-4 1.794-4 4v8c0 2.206 1.794 4 4 4h12c2.206 0 4-1.794 4-4v-8c0-2.206-1.794-4-4-4" fill="#3E3F42" mask="url(#b)"/></g><path d="M14.71 18.292c-.37-.37-1.04-.37-1.42 0-.18.19-.29.44-.29.71 0 .26.11.52.29.7.1.1.21.17.33.22.12.05.25.08.38.08a1.009 1.009 0 0 0 1-1c0-.13-.03-.26-.08-.38a.933.933 0 0 0-.21-.33m-5.42 0c-.09.09-.16.2-.21.32-.05.13-.08.26-.08.39s.03.26.08.38.12.23.21.33c.19.18.45.29.71.29.26 0 .52-.11.71-.29.18-.19.29-.45.29-.71 0-.27-.11-.53-.29-.71-.38-.37-1.04-.37-1.42 0m-2.58 0a1 1 0 0 0-1.09-.22c-.12.05-.23.13-.33.22-.18.19-.29.45-.29.71 0 .26.11.52.29.71.19.18.45.29.71.29.26 0 .52-.11.71-.29.09-.1.16-.21.21-.33.05-.12.08-.25.08-.38s-.03-.26-.08-.39a.988.988 0 0 0-.21-.32" fill="#3E3F42"/></g></svg>