<svg width="20" height="20" viewBox="0 0 20 20" xmlns="http://www.w3.org/2000/svg"><title>Fill 1</title><path d="M10 2c-4.411 0-8 3.589-8 8s3.589 8 8 8a8.02 8.02 0 0 0 3.744-.928 1.002 1.002 0 0 1 1.099.108c.648.526 1.112.734 1.851.8a4.373 4.373 0 0 1-.995-1.587 1 1 0 0 1 .208-.999A7.973 7.973 0 0 0 18 10c0-4.411-3.589-8-8-8m0 18C4.486 20 0 15.514 0 10S4.486 0 10 0s10 4.486 10 10a9.972 9.972 0 0 1-2.167 6.217c.457.673 1.271 1.154 1.575 1.289a1.001 1.001 0 0 1 .157 1.739c-.763.522-1.759.785-2.71.75-1.089-.051-1.908-.304-2.751-.874A10.032 10.032 0 0 1 10 20" fill="#3E3F42" fill-rule="evenodd"/></svg>