<svg width="20" height="20" viewBox="0 0 20 20" xmlns="http://www.w3.org/2000/svg" xmlns:xlink="http://www.w3.org/1999/xlink"><title>Group 3</title><defs><path id="a" d="M0 0h20v20H0z"/></defs><g fill="none" fill-rule="evenodd"><mask id="b" fill="#fff"><use xlink:href="#a"/></mask><path d="M14.55 16.57c.785-1.513 1.299-3.43 1.42-5.57h1.96a8.004 8.004 0 0 1-3.38 5.57zM2.07 11h1.96c.122 2.14.635 4.057 1.419 5.57A8.003 8.003 0 0 1 2.069 11zm3.379-7.571c-.784 1.514-1.297 3.432-1.42 5.57H2.07a8.003 8.003 0 0 1 3.38-5.57zm5.55 5.57v-6.7c1.428.822 2.745 3.318 2.966 6.702H11zm0 8.704V11h2.966c-.221 3.384-1.538 5.88-2.965 6.703zM9 11v6.703C7.574 16.88 6.258 14.383 6.036 11H9zm0-8.702V9H6.036C6.257 5.616 7.573 3.12 9 2.298zM17.932 9h-1.96c-.122-2.14-.636-4.057-1.42-5.571a8.004 8.004 0 0 1 3.38 5.57zM10 0C4.486 0 0 4.486 0 10s4.486 10 10 10 10-4.486 10-10S15.514 0 10 0z" fill="#3E3F42" mask="url(#b)"/></g></svg>