<svg width="20" height="20" viewBox="0 0 20 20" xmlns="http://www.w3.org/2000/svg" xmlns:xlink="http://www.w3.org/1999/xlink"><title>Group 10</title><defs><path id="a" d="M0 .006h2V2H0z"/><path id="c" d="M0 .005h2V2H0z"/><path id="e" d="M0 0h20v17H0z"/></defs><g fill="none" fill-rule="evenodd"><g transform="translate(11 18)"><mask id="b" fill="#fff"><use xlink:href="#a"/></mask><path d="M.62.08C.49.13.39.2.29.29.11.48 0 .74 0 1c0 .26.11.52.29.71.19.18.45.29.71.29.07 0 .13-.01.2-.02.06-.01.12-.03.18-.06.06-.02.12-.05.18-.09l.15-.12c.09-.1.16-.2.21-.33.05-.12.08-.25.08-.38 0-.26-.11-.52-.29-.71C1.43.01.98-.07.62.08" fill="#3E3F42" mask="url(#b)"/></g><g transform="translate(3 18)"><mask id="d" fill="#fff"><use xlink:href="#c"/></mask><path d="M1.38.08a1 1 0 0 0-.76 0C.49.13.39.2.29.29.11.48 0 .74 0 1c0 .07.01.13.02.2.01.06.03.12.06.18.02.06.05.12.09.18l.12.15C.48 1.89.74 2 1 2c.13 0 .26-.03.38-.08s.23-.12.33-.21l.12-.15c.04-.06.07-.12.09-.18.03-.06.05-.12.06-.18.01-.07.02-.13.02-.2 0-.26-.11-.52-.29-.71-.1-.09-.2-.16-.33-.21" fill="#3E3F42" mask="url(#d)"/></g><mask id="f" fill="#fff"><use xlink:href="#e"/></mask><path d="M6.72 2h10.893l-3 9H3.72l3-9zM20 1c0-.013-.007-.024-.008-.038-.002-.073-.023-.141-.042-.211-.015-.057-.022-.115-.046-.167-.028-.059-.07-.107-.108-.16-.037-.051-.068-.105-.115-.149-.043-.04-.096-.066-.147-.099-.06-.039-.116-.08-.183-.105-.013-.005-.022-.015-.034-.02-.055-.018-.111-.012-.166-.021C19.1.022 19.054 0 19 0H1.018a1 1 0 0 0 0 2h3.595L.052 15.684c-.018.053-.012.107-.02.161-.01.052-.032.1-.032.155 0 .013.007.024.008.038.003.073.024.141.043.211.015.057.022.115.046.167.027.059.069.107.107.16.038.051.069.105.115.149.043.04.097.066.148.099.059.039.115.08.183.105.012.005.02.015.034.02A1 1 0 0 0 1 17h12a1 1 0 1 0 0-2H2.388l.666-2h12.28a.983.983 0 0 0 .353-.071c.035-.014.065-.033.098-.05a.976.976 0 0 0 .288-.219.958.958 0 0 0 .134-.2c.019-.035.04-.066.055-.104.005-.014.016-.025.02-.04l3.667-11c.018-.053.01-.107.02-.161.008-.052.03-.1.03-.155z" fill="#3E3F42" mask="url(#f)"/></g></svg>