<svg width="40" height="40" viewBox="0 0 40 40" xmlns="http://www.w3.org/2000/svg"><title>Group 5</title><g fill="#3E3F42" fill-rule="evenodd"><path d="M20 38c-9.925 0-18-8.075-18-18S10.075 2 20 2s18 8.075 18 18-8.075 18-18 18m0-38C8.972 0 0 8.972 0 20s8.972 20 20 20 20-8.972 20-20S31.028 0 20 0"/><path d="M25.707 14.293a.999.999 0 0 0-1.414 0L20 18.586l-4.293-4.293a.999.999 0 1 0-1.414 1.414L18.586 20l-4.293 4.293a.999.999 0 1 0 1.414 1.414L20 21.414l4.293 4.293a.997.997 0 0 0 1.414 0 .999.999 0 0 0 0-1.414L21.414 20l4.293-4.293a.999.999 0 0 0 0-1.414"/></g></svg>