<svg width="20" height="19" viewBox="0 0 20 19" xmlns="http://www.w3.org/2000/svg"><title>Group 13</title><path d="M2 2.5a.5.5 0 0 1 .5-.5h5a.5.5 0 0 1 .5.5v5a.5.5 0 0 1-.5.5h-5a.5.5 0 0 1-.5-.5v-5zm.5 7.5h5C8.878 10 10 8.878 10 7.5v-5C10 1.122 8.878 0 7.5 0h-5A2.503 2.503 0 0 0 0 2.5v5C0 8.878 1.122 10 2.5 10zM14 2h5a1 1 0 0 0 0-2h-5a1 1 0 0 0 0 2m5 2h-5a1 1 0 0 0 0 2h5a1 1 0 0 0 0-2m0 4h-5a1 1 0 0 0 0 2h5a1 1 0 0 0 0-2m0 5H1a1 1 0 0 0 0 2h18a1 1 0 0 0 0-2m0 4H1a1 1 0 0 0 0 2h18a1 1 0 0 0 0-2" fill="#3E3F42" fill-rule="evenodd"/></svg>