<svg width="20" height="20" viewBox="0 0 20 20" xmlns="http://www.w3.org/2000/svg"><title>Group 5</title><g fill="#3E3F42" fill-rule="evenodd"><path d="M16 18H4c-1.103 0-2-.897-2-2v-4.277l5.504 3.145a1 1 0 0 0 1.011-.011l4.529-2.717L18 14.618V16c0 1.103-.897 2-2 2M4 2h12c1.103 0 2 .897 2 2v8.382l-4.553-2.277a1 1 0 0 0-.962.038l-4.497 2.698L2 9.42V4c0-1.103.897-2 2-2m12-2H4C1.794 0 0 1.794 0 4v12c0 2.206 1.794 4 4 4h12c2.206 0 4-1.794 4-4V4c0-2.206-1.794-4-4-4"/><path d="M5.5 7a1.5 1.5 0 1 0 .001-2.999A1.5 1.5 0 0 0 5.5 7"/></g></svg>