<svg width="20" height="20" viewBox="0 0 20 20" xmlns="http://www.w3.org/2000/svg"><title>Group 9</title><g fill="#3E3F42" fill-rule="evenodd"><path d="M18 16c0 1.103-.897 2-2 2H4c-1.103 0-2-.897-2-2V4c0-1.103.897-2 2-2h12c1.103 0 2 .897 2 2v12zM16 0H4C1.794 0 0 1.794 0 4v12c0 2.206 1.794 4 4 4h12c2.206 0 4-1.794 4-4V4c0-2.206-1.794-4-4-4z"/><path d="M6.457 7.793a1.002 1.002 0 0 0-1.415 0l-1.5 1.5a1.005 1.005 0 0 0 .001 1.416l1.5 1.498a.997.997 0 0 0 1.414 0 1 1 0 0 0 0-1.415l-.793-.791.793-.793a1 1 0 0 0 0-1.415m8.34 0a.999.999 0 1 0-1.414 1.414l.793.794-.793.792a.999.999 0 1 0 1.414 1.414l1.5-1.499a1.003 1.003 0 0 0 0-1.415l-1.5-1.5zm-3.071-2.301a1 1 0 0 0-1.308.537l-3 7.171a1 1 0 1 0 1.845.771l3-7.17a1 1 0 0 0-.537-1.309"/></g></svg>